<svg id="Celebration" xmlns="http://www.w3.org/2000/svg" viewBox="0 0 216 216"><defs><style>.cls-1{fill:#292445;}.cls-2{fill:#19402d;}.cls-3{fill:#1f4f39;}.cls-4{fill:#141212;}</style></defs><g id="background"><rect class="cls-1" x="-512" y="-442.39" width="850.39" height="850.39"/></g><g id="stars"><path class="cls-2" d="M37.17,206.29a1.64,1.64,0,1,1-1.51-1.51A1.64,1.64,0,0,1,37.17,206.29Z"/><path class="cls-2" d="M51.59,177.07a1.64,1.64,0,1,1-1.51-1.51A1.64,1.64,0,0,1,51.59,177.07Z"/><path class="cls-2" d="M44.62,45.61a1.64,1.64,0,1,1-1.51-1.51A1.64,1.64,0,0,1,44.62,45.61Z"/><path class="cls-2" d="M34.75,19.61a1.64,1.64,0,0,1-3.27,0,1.64,1.64,0,0,1,3.27,0Z"/><path class="cls-2" d="M132.14,9.05a1.64,1.64,0,1,1-1.64-1.64A1.64,1.64,0,0,1,132.14,9.05Z"/><path class="cls-2" d="M167.66,28.12A1.64,1.64,0,1,1,166,26.48,1.64,1.64,0,0,1,167.66,28.12Z"/><path class="cls-2" d="M213.05,59.7a1.64,1.64,0,1,1-1.51-1.51A1.64,1.64,0,0,1,213.05,59.7Z"/><path class="cls-2" d="M196,196.23a1.64,1.64,0,1,1-1.64-1.64A1.64,1.64,0,0,1,196,196.23Z"/><path class="cls-2" d="M215.36,164a1.64,1.64,0,1,1-1.51-1.51A1.64,1.64,0,0,1,215.36,164Z"/></g><g id="fireworks"><path class="cls-3" d="M139.7,94.91c6,.28,8.86,0,14.64.12s10.59,1.45,14.13,1.93C163.65,91.3,145,91.37,139.7,94.91Z"/><path class="cls-2" d="M189.26,16c0,3-4.68,3-4.63,0S189.31,13,189.26,16Z"/><path class="cls-2" d="M177.62,11.48c0,3-4.68,3-4.64,0S177.67,8.47,177.62,11.48Z"/><path class="cls-2" d="M181.94,7.39c0,3-4.68,3-4.64,0S182,4.38,181.94,7.39Z"/><path class="cls-2" d="M197.59,11c0,3-4.69,3-4.64,0S197.63,8,197.59,11Z"/><path class="cls-2" d="M191-2.16c0,3-4.69,3-4.64,0S191.08-5.17,191-2.16Z"/><path class="cls-2" d="M213.32,11.71c0,3-4.68,3-4.64,0S213.36,8.7,213.32,11.71Z"/><path class="cls-2" d="M220.37,18.53c0,3-4.69,3-4.64,0S220.41,15.52,220.37,18.53Z"/><path class="cls-2" d="M160.68-.34c0,3-4.69,3-4.64,0S160.72-3.39,160.68-.34Z"/><path class="cls-2" d="M169.36,5.92c0,3-4.68,3-4.64,0S169.41,2.91,169.36,5.92Z"/><path class="cls-2" d="M201,18.3c0,3-4.69,3-4.64,0S201,15.29,201,18.3Z"/><path class="cls-3" d="M107.57,285.61c2.8-25.15,3.85-149.6.46-174.35C105.9,123.11,105.11,274.74,107.57,285.61Z"/><path class="cls-3" d="M82.25,152.67c3.74-9,12.61-37.75,21.62-43.4C93.55,112.43,80.6,147,82.25,152.67Z"/><path class="cls-3" d="M71.69,128.82c6.07-6.55,11.53-16.4,31-21.8C93.23,103.61,70.83,122,71.69,128.82Z"/><path class="cls-3" d="M54.06,128.09c.9.66,1.74-1,4.54-3.39,8.21-10.46,21-16.44,32.53-18.64C80.71,101.38,53.68,120.3,54.06,128.09Z"/><path class="cls-3" d="M37.79,115.07c14.79-7.39,48.52-15.42,65-9.88C90.43,94,42.09,104.32,37.79,115.07Z"/><path class="cls-3" d="M53.43,96.61c.42,1,2,.49,5.57-.17,13.46-2.51,26.79-1.25,36.93,3C89.8,90.54,57.55,90.45,53.43,96.61Z"/><path class="cls-3" d="M77.05,53.92C89.38,66.57,98.59,75.48,105.3,96.36,107.71,84.61,81.51,50.83,77.05,53.92Z"/><path class="cls-3" d="M135.54,52.61c-6.35,4.84-22.45,29.44-22.12,37.2C113.56,74.8,125.76,53.13,135.54,52.61Z"/><path class="cls-3" d="M74.59,70.55A122.63,122.63,0,0,1,89.72,81.87c5.56,3.93,14.8,17.86,15.13,20.69C103.1,87.68,81.07,69,74.59,70.55Z"/><path class="cls-3" d="M138.78,63.85c-6.45,3.81-22.32,23.6-24.91,30.19C116.62,83.43,132.63,63,138.78,63.85Z"/><path class="cls-3" d="M153.4,66.93c.13,1.27-1.87,1.63-5.55,4.07a141.22,141.22,0,0,0-14.21,9.69C126,85.48,114.39,98,113.52,101.93,117.36,84.52,146.15,66.61,153.4,66.93Z"/><path class="cls-3" d="M155.76,86.61c-5.11,1.25-9.34,1.22-17.15,3.7-6.51,1.06-15.26,6.06-19.5,8.63C123,90.49,150.66,82.61,155.76,86.61Z"/><path class="cls-3" d="M152.75,104.12c-2.75.06-8.37-1.06-17-1.22A121.48,121.48,0,0,0,114,104.22C120.2,97.74,149.83,98.33,152.75,104.12Z"/><path class="cls-3" d="M137.94,136.72c-2.6-5-4.22-7.06-9.13-14.66s-12-13.27-14.74-15.76C122.94,107.13,140.71,130.85,137.94,136.72Z"/><path class="cls-3" d="M128.56,147.69c-2.4-7.12-8.34-23.12-12.83-29.86-3.13-5-4.15-6-4.5-7.31C119.55,112.27,132.65,142.61,128.56,147.69Z"/><path class="cls-3" d="M72,81.72c15.16,8.13,20.1,7.78,32.75,23C103.25,95.46,78.16,79.21,72,81.72Z"/><path class="cls-3" d="M108.25,106.31c1.55-1.56,1.55-23.16,1.92-34.15-.15-12.33.67-27.34-1.44-26.8S107,100.61,108.25,106.31Z"/><path class="cls-3" d="M114.17,66.68c.25.33,1.69-2.63,6-9.27,2.06-3.19,6.83-7.31,7.78-10.62C121.78,47.85,113.88,61.34,114.17,66.68Z"/><path class="cls-3" d="M103.49,80.55c-.33.25-.89-3-3.16-10.56A122.92,122.92,0,0,0,95.8,57.61C101.41,60.35,105.25,75.5,103.49,80.55Z"/><path class="cls-3" d="M125.12,106.91c3.85,2.09,9.1,4.79,13.16,7.39s7.6,6.58,10.75,9.42C148.28,116.32,131.7,106.27,125.12,106.91Z"/></g><g id="palm_trees" data-name="palm trees"><path class="cls-4" d="M10.36,97.82C-9.12,92.37-33,92.93-49.76,105.25c10.37-12.15,24.33-14.2,38.28-16.56-6.33-1.32-13.86-.41-20,1.57,6.8-5.06,1-4.12-2.77-1,.77-2,1.82-5,.87-7,6.79-2.94,11.89-8.41,18.11-12.16,1.76-1.2,5.07-1.49,5.8-3.61-3.13-1.4-7.59,2.25-11.31,1.56,7.36-5.94-9.67.21-11,2.87-7.7,3.61-12,13.2-18.64,18.82C-48.37,78.35-34,60.13-34.85,59.45S-43.8,67.38-46.75,71c1-3.89,6.77-9.55,6.17-10.31S-47.7,66-50.3,69.57c2-5.84,8.37-7.79,10.81-13,2.14-9.89,3.33-14.65-5.26-4.19-1.34,1.61-.44,4.32-1.8,5.91,1.35-7.65-3.48,1.64-5.74,3-.22-2.84.26-7.4-3-8.57-.42-6-5.32,3.08-4.86,7-6.12-9.19,4.1,13.84,2.38,20.33-3.41-9.51-9.21-18.3-14.07-27.5-.74-1.46-2.2-.52-3.25-2.61-.32-.64-1.28-1.54-1.79-1-2.41,4.8,7.12,17.14,8.29,23.44-8.3-7.16,3.73,11.18,4.88,13.52-2.86-.65,2.7,6.64,3,8.06-2.63.18-2.33-4.37-5.1-4.28-.57-.34-.57-1.14-.85-1.73-.57-1.27-2.3-1.54-3.15-2.64-.57-1-1.86-2.45-1.56-.65-2-2.31-3.67-4.65-6.88-5.43-4.68-1.82-15-10.55-12.88-5.25-2.86-2.52-4.15-.71-1.37,1.43,7.21,5.46,16.67,8.41,22.1,16C-78.19,86-86.82,79.25-96.5,79.72c-.71-.45-2.44-.81-2.27.49,11.86,6.3,29.5,8.92,35.06,23.09-7.38-6.62-35.59-8.23-37.73-6.35-3.37.16-9.23-.13-9.39,1.12,3.82,2.23,23.29.57,28.9,1.53,4.33,0-.88.72,8.67,1.44a16.11,16.11,0,0,1,7.06,2.25c-11.14-1.84-28.51-2.6-42,1.61-10.52,1.76-9.31,4.17-9.31,4.17-30.63,16.32,39.63-17.93,56.16-1-10.17-6-23.88,2-24.86,2-5.78.08-4.74,1.92-5.21,2-2.65.48-1.48,1.6-2.33,1.77-6.58,1.28-5,2.79-5.78,3.29-6.66,4.25-6.26,5.62-7.14,8.91-.69,2.54-6.59,5.94-5.62,6.82,7.69-3.91,29.51-30.77,49-25.21-2.25-1.62-32.61,10.22-33,14.93-.08.89-5.54,3.38-8.11,5.06s-2.65,4.5-3.69,6.91-4.33,5.69-3.69,5.94c.53.74,23.4-25.9,29.94-25.45-2.52.5-20.73,15.94-18.7,19.59,1,.8,5.29-6.35,9.31-10.68s10.59-7.79,10.59-7.79c.54,0-19.73,18.38-15,20.23-3.57,5.75-.58,5.66,2.25-1.28,3-6.08,6.81-7.19,10.09-12.92-1,7.44,11.34-20.33,22.81-12.67-8.65,1-21.75,39-21.26,40.68,1.28.56,1.85-3.21,3.37-5.62,7.7-9.84,5.59-27.1,17.91-34.32C-50.47,163-62.39,339-59.35,387.4c-.64,12.19,7.06,5.14,7.06,5.14-2.57-58.35,1.44-223.26.35-280.46,5.12,6.55,5.09,15.51,9.31,22.6,1.13,5.46,1.13,10.87,4.67,15.24,5.4,4.78-3-23.19-4.7-24.86a145.66,145.66,0,0,0-8.54-14.13c.43-3.18,4.45-.81,6.43.7,4.24,2.94,4.85,8.55,7.89,12.34,3.29,2,3.46,6.57,6.64,8.48,4.39,3.18,2.85-.35,1.39-3.08-3-8.86-8.93-18-18.64-20.65,12.54-.59,24.46,2.86,36.35,6.36,12.29,4-4.63-3.8-8-3.85,2.63-3-29.15-4.55-32-3,15-9.11,34.84-2.93,48.87,5.43,1.22,1,1.55-.24.43-1-3.39-3.81-8.52-4.22-12.31-7.06-2-.85-3.28-3.51-5.31-3.72-3.2-.2-3.19-2-5-1.81-3.61.33-2.65-1.09-4.29-1.08-4.51,1.42-9.33,1.14-13.66,3.16,10.09-6.52,23.61-2.35,34.82-5.4C-5.38,96,13.27,100.83,10.36,97.82Z"/><path class="cls-4" d="M319,97.82c-19.48-5.45-43.37-4.89-60.12,7.43,10.38-12.15,24.34-14.2,38.28-16.56-6.33-1.32-13.86-.41-20,1.57,6.81-5.06,1-4.12-2.77-1,.78-2,1.83-5,.88-7,6.78-2.94,11.88-8.41,18.1-12.16,1.77-1.2,5.07-1.49,5.81-3.61-3.14-1.4-7.6,2.25-11.32,1.56,7.37-5.94-9.66.21-11,2.87-7.71,3.61-12,13.2-18.65,18.82,2.06-11.39,16.4-29.61,15.57-30.29s-9,7.93-11.9,11.5c1-3.89,6.78-9.55,6.17-10.31s-7.12,5.35-9.71,8.93c2-5.84,8.37-7.79,10.81-13,2.14-9.89,3.33-14.65-5.27-4.19-1.34,1.61-.44,4.32-1.8,5.91,1.35-7.65-3.47,1.64-5.73,3-.22-2.84.26-7.4-3-8.57-.43-6-5.33,3.08-4.87,7-6.11-9.19,4.11,13.84,2.39,20.33-3.42-9.51-9.22-18.3-14.08-27.5-.74-1.46-2.2-.52-3.24-2.61-.32-.64-1.29-1.54-1.79-1-2.42,4.8,7.12,17.14,8.29,23.44-8.31-7.16,3.72,11.18,4.88,13.52-2.87-.65,2.7,6.64,3,8.06-2.63.18-2.33-4.37-5.11-4.28-.56-.34-.57-1.14-.84-1.73-.58-1.27-2.31-1.54-3.15-2.64-.57-1-1.87-2.45-1.57-.65-2-2.31-3.67-4.65-6.87-5.43-4.69-1.82-15-10.55-12.88-5.25-2.86-2.52-4.16-.71-1.37,1.43,7.2,5.46,16.66,8.41,22.1,16-7.8-5.45-16.43-12.16-26.11-11.69-.71-.45-2.43-.81-2.26.49,11.86,6.3,29.5,8.92,35,23.09-7.38-6.62-35.59-8.23-37.72-6.35-3.37.16-9.23-.13-9.39,1.12,3.81,2.23,23.28.57,28.89,1.53,4.34,0-.88.72,8.67,1.44a16.38,16.38,0,0,1,7.07,2.25c-11.15-1.84-28.52-2.6-42,1.61-10.51,1.76-9.31,4.17-9.31,4.17-30.62,16.32,39.63-17.93,56.16-1-10.17-6-23.88,2-24.85,2-5.78.08-4.75,1.92-5.22,2-2.65.48-1.48,1.6-2.33,1.77-6.58,1.28-5,2.79-5.78,3.29-6.66,4.25-6.26,5.62-7.14,8.91-.68,2.54-6.58,5.94-5.62,6.82,7.7-3.91,29.52-30.77,49-25.21-2.26-1.62-32.61,10.22-33,14.93-.08.89-5.53,3.38-8.1,5.06s-2.65,4.5-3.7,6.91-4.33,5.69-3.69,5.94c.54.74,23.4-25.9,29.94-25.45-2.51.5-20.73,15.94-18.7,19.59,1,.8,5.3-6.35,9.31-10.68s10.6-7.79,10.6-7.79c.54,0-19.74,18.38-15,20.23-3.58,5.75-.59,5.66,2.24-1.28,3-6.08,6.81-7.19,10.09-12.92-1,7.44,11.34-20.33,22.81-12.67-8.65,1-21.74,39-21.26,40.68,1.29.56,1.85-3.21,3.37-5.62,7.7-9.84,5.6-27.1,17.91-34.32,10,52.78-1.91,228.78,1.12,277.14-.64,12.19,7.06,5.14,7.06,5.14-2.56-58.35,1.44-223.26.36-280.46,5.11,6.55,5.09,15.51,9.3,22.6,1.13,5.46,1.14,10.87,4.67,15.24,5.41,4.78-3-23.19-4.7-24.86a141.78,141.78,0,0,0-8.54-14.13c.43-3.18,4.45-.81,6.43.7,4.24,2.94,4.86,8.55,7.9,12.34,3.28,2,3.45,6.57,6.64,8.48,4.38,3.18,2.85-.35,1.38-3.08-3-8.86-8.93-18-18.63-20.65,12.53-.59,24.46,2.86,36.35,6.36,12.28,4-4.64-3.8-8-3.85,2.63-3-29.15-4.55-32-3,15-9.11,34.85-2.93,48.87,5.43,1.22,1,1.55-.24.43-1-3.38-3.81-8.51-4.22-12.31-7.06-2-.85-3.28-3.51-5.31-3.72-3.19-.2-3.19-2-5-1.81-3.61.33-2.66-1.09-4.3-1.08-4.51,1.42-9.33,1.14-13.65,3.16,10.08-6.52,23.61-2.35,34.82-5.4C303.28,96,321.93,100.83,319,97.82Z"/></g></svg>