<svg id="Places" xmlns="http://www.w3.org/2000/svg" viewBox="0 0 176.02 176"><defs><style>.cls-1{fill:#834d5a;}.cls-2{fill:#372b57;}.cls-3{fill:#6b3b4c;}.cls-4{fill:#523351;}</style></defs><g id="background"><rect class="cls-1" x="-408.75" y="-657.24" width="850.49" height="850.4"/></g><g id="trees"><path class="cls-2" d="M226.45,46.93c-2.59,1.36-5.89.66-8.31-1a10.45,10.45,0,0,1-4.41-6.49,3.6,3.6,0,0,1-5.4-2.55,20.75,20.75,0,0,1-7.2,3c-2.58.38-5.49-.34-7.06-2.44s-1.11-5.63,1.26-6.74a18.71,18.71,0,0,1-15.41.43,6.23,6.23,0,0,0,5.59,5.17A8.31,8.31,0,0,1,178,42a8.64,8.64,0,0,1-11.66,3.65,8.74,8.74,0,0,1-3.42-3.24c-3.62,3.83-9.72,5.52-14.39,3.09a9.65,9.65,0,0,1-4.87-8.08,15.58,15.58,0,0,1-3.79.44c-6,0-12.94-4-12.35-9.94a12.67,12.67,0,0,1-11.16,5.73,11.54,11.54,0,0,1-15.42,14.51c-3,5.22-12,5.22-15,0-5.43,2.94-13.24-1.54-13.43-7.72a8.08,8.08,0,0,1-9,7c-.26,0-.53-.08-.79-.14A8.87,8.87,0,0,1,47,52.12a6.45,6.45,0,0,1-8.75,1.75,12.68,12.68,0,0,1-15.13-2.16,9,9,0,0,1-16.4-2.33,5,5,0,0,1-5.29-8.55,7,7,0,0,1-6-7.69c-.71,6.1-6.89,10.34-13,11.12-2.14.28-4.61.1-6-1.55-.54,4.2-2.89,8.54-6.9,9.89s-9.31-1.84-8.78-6.05A8.55,8.55,0,0,1-45,47.8a7.64,7.64,0,0,1-4.09,10,7.67,7.67,0,0,1-5.91,0c-.8,3.42-5.14,5-8.52,4s-6-3.59-8.41-6.13l-2.24-2.34c-5.33,1-10.5-5.26-8.5-10.31A6.07,6.07,0,0,1-87,35.58a6,6,0,0,1,5-4.46l.15-.35A10,10,0,0,1-89,30.51a10.59,10.59,0,0,1-5.21,6A7.42,7.42,0,0,1-94.37,47a7.44,7.44,0,0,1-6.54,2,10,10,0,0,1-11.31,8.48A10,10,0,0,1-118.48,54c-1.69,3.35-6.32,4.34-9.82,3s-6-4.39-8.13-7.52c-2.31-3.48-4.23-8.18-1.9-11.66-5.61,4.2-14.63,2.59-18.44-3.28.15,4.7-6.21,8.08-10,5.34a5.68,5.68,0,0,1-7,4,5.7,5.7,0,0,1-4.16-5.69,7.92,7.92,0,0,1-9.32-6.21c0-.26-.09-.53-.12-.79-3.35,2.29-7.87-.08-10.93-2.75s-6.47-5.91-10.48-5.32a11.66,11.66,0,0,1,6.21,12.17,7.34,7.34,0,0,1,9.39,4.49l0,0c4.18-3.79,12.28.61,11.38,6.18s-10,7.2-12.75,2.29a12,12,0,0,1-16.72,2.91,12,12,0,0,1-5-8.22c-6.4,4.19-16.44.18-18.2-7.27-2.07-8.82,5.85-16.53,13-22.14,21-16.56,42.52-33.38,67.65-42.57,3.81-1.38-8.87-26.06-28.34-60.3A743.37,743.37,0,0,0-266.69-80c-51.78,8.87-143.19,27.47-143.19,27.47l1,114.81s107.23,13.42,155.69,11.49c2.66-.11,5.44-.3,8.19-.67,19.37,4.56,39.22,7.54,59,6.24,5.85-.38,11.79-1.17,17.05-3.75l.19-.11c.25.32.51.63.79.93,4.05,4.23,12.16,3.18,15-2,4.48,2.73,11.23.18,12.79-4.83a15.71,15.71,0,0,0,19-.54c-1.34,3.72,1.94,7.87,5.8,8.79s7.86-.51,11.42-2.26c.84,4.36,7,6.6,10.41,3.81a6.14,6.14,0,0,0,8,3.24c5,6.24,15.06,7,21.36,2.43a7.9,7.9,0,0,0,2.91,6.07A8.19,8.19,0,0,0-49.87,89l.16-.24a10.89,10.89,0,0,0,12.87-5.52c4.31,2.28,10.41-.27,11.82-5,3.41,2.37,9-1,8.51-5.07a8.43,8.43,0,0,0,9.16-5.06,9,9,0,0,0,11,5.06c-1.56,3.54,2.33,8.07,6.06,7,.27,2,1.72,4.07,3.76,4.28s4-2.26,2.9-4l3.22,1.82c-2,1.79-1.33,5.45,1,6.78a5.53,5.53,0,0,0,7-1.8,7.35,7.35,0,0,0,.17-7.57c4.36,1.43,9.55-2.38,9.5-7A10.8,10.8,0,0,0,47.73,68.5a7.63,7.63,0,0,0,8.87.11c1.55,2.7,3.9,5.82,7,5.28,1.13-.2,2.16-.9,3.3-.86s2.29.93,3.38,1.56c4.53,2.62,11.22-.2,12.51-5.28,5.42,2.28,12,0,15.62-4.57A4.35,4.35,0,0,0,102,67.06c1.19,0,2.56-.37,3.42.44s.64,1.81.78,2.79a5.42,5.42,0,0,0,6.37,4.27l.24,0a7.93,7.93,0,0,0,3.07,6c2.38,1.81,5.54,2.11,8.53,2.33,3.24.25,6.57.49,9.71-.36s6.14-3,7.07-6.12a7.59,7.59,0,0,0,8.71-6.26l0-.26A10.43,10.43,0,0,0,165.18,60a9.51,9.51,0,0,0,9-8,10.26,10.26,0,0,0,13.17-5.41c3.74,2.65,9.76.8,11.38-3.48a7.35,7.35,0,0,0,7,.77,13.29,13.29,0,0,0,.09,1.9,8.08,8.08,0,0,0,7.35,7.09c-1.47,3.61,2,7.72,5.88,8.25s7.61-1.41,10.84-3.59c1.71-1.15,3.46-2.5,4.13-4.45A5.31,5.31,0,0,0,231.75,47a6.16,6.16,0,0,0-.05-8.22,11.69,11.69,0,0,1-3.36.74C230.28,41.76,229.05,45.57,226.45,46.93Z"/><path class="cls-1" d="M125.44,37.69a7.31,7.31,0,0,0,7.44,6.07c-3,1.4-4.28,5-4.51,8.28.06-.77-3.37-2.88-4-3.29a15.71,15.71,0,0,0-6.79-2.19,19.4,19.4,0,0,0,5.12-4.34A38.69,38.69,0,0,0,125.44,37.69Z"/><path class="cls-2" d="M131.25,111.51c1-23.2,7-35.69,7.08-35.82l-1.8-.88-1.79-.88c-.24.48-5.27,10.93-7,30.7-2.59-20.74-6.69-28.35-7-28.87l-3.49,2c.08.15,5.73,10.86,7.81,41.72-.07-.7-.14-1.39-.22-2-1.83-15.38-9.47-30.63-12-35.42a42.3,42.3,0,0,1,3.66-5.43l-1.52-1.3L113.42,74c-.39.44-6.62,7.84-10.57,21.09,1.78-18.39,4-27.17,5.23-28.6h0l-4.24-4.25C101.7,64.42,100,71,98.73,79.37,96.84,68.15,94.13,63.5,94,63.24l-1.72,1c0,.07,3.77,6.54,5.45,22.59-.18,1.55-.36,3.12-.52,4.72-2.35-8-6.47-17.92-11.91-25L84,64.87l-1.6,1.39a50.32,50.32,0,0,0-14.46,26.6v-29h-4V86.82C59.71,74.34,53.49,67.55,53.11,67.15l-.92-1L51.11,67A50.86,50.86,0,0,0,35,92l-2.44-.13c.92-6.88,3-16.38,7.6-22.21l-1.56-1.24c-4.76,6-6.94,15.37-7.94,22.41-1.82-10.37-4-13.93-4.45-14.51l-4.95,3.38c.06.09,5.92,9.74,5.92,47.57,0,4.07,0,7.14.12,9.12.1,2.59.22,5.52,3.24,5.6h.1c2.8,0,3.17-2.9,3.39-4.64.15-1.26.34-3.09.53-5.45.33-3.92.71-9.39,1.13-16.24.41-6.64.79-13.33,1-17.88A50.12,50.12,0,0,1,51.81,70.27c2.54,3.21,9.64,13.37,12.09,29.27v53.62h3v2.6h4v-16c1-25.84,13.5-51.14,17.89-59.3,4.14,9,6.58,18.66,6.58,22.62v11.43c-.86,15.47-1.12,32.07,0,39.48v7.1h4v-2.48l.28-4V177h4V117.41A72.76,72.76,0,0,1,110,87.28c.16-.34.32-.67.47-1,3.11,6.21,8.86,19,10.36,31.58,2.1,17.65,1.91,56.94,1.91,57.34h4v-5.6h.45c.13,6.67.26,11,.26,11.18l4-.11C131.45,180.26,130.2,135.13,131.25,111.51Z"/><path class="cls-1" d="M70.89,118.76V103.07A48.21,48.21,0,0,1,83.42,70.82a56,56,0,0,1,3.75,6.33A171.46,171.46,0,0,0,70.89,118.76Z"/><path class="cls-2" d="M-6.65,88V66.25h-4V86.9c-2.92-13.52-6.86-21-7.07-21.44l-1.77.94c.06.12,6.22,11.87,8.79,32.15-3.45-17.19-11.15-24.13-11.57-24.5l-2.63,3s3,2.7,5.9,8.8c2.71,5.67,5.94,15.52,5.94,30.32h2.41v9.15h4V118.5L-5,118l1.58-.14c-.09-.94,0-10.2,0-16.32V93.85c0-4.61,3.16-16.78,12.93-25L6.9,65.78A42.61,42.61,0,0,0-6.65,88Z"/><path class="cls-3" d="M235.79,47c2.19-2.28,4-6.39,1.69-8.5a8.11,8.11,0,0,0-2-15.41c.77-8.33-7.41-10.34-10.32-9.13,3.54-1.61,5.46-5.87,4.86-9.71a12.64,12.64,0,0,0-6.86-8.89,9.23,9.23,0,0,0-1.72-12.94,9.23,9.23,0,0,0-11.85.53,6.42,6.42,0,0,0-2.35-6.47c4.08-2.39,6.86-7.2,6.14-11.88s-5.44-8.6-10.1-7.79c1.19-3.56-2.47-7.13-6.18-7.69a11.38,11.38,0,0,0-11.45,5.76,5.21,5.21,0,0,0-6.82,2.23,7.64,7.64,0,0,0-10.72,1.35,7.66,7.66,0,0,0-.69,8.31,4.53,4.53,0,0,0-3.68.69c-.52-2.66-1.53-5.49-4-6.22A11.76,11.76,0,0,0,166.35-45a8.69,8.69,0,0,0-1.16-8.85c-1.6-1.85-4.76-2.72-6.43-.93A9.32,9.32,0,0,0,147.86-62c1.64-2.58,3-5.51,2.82-8.56s-2.52-6.13-5.58-6.24a9.28,9.28,0,0,0,5-11.26,9.82,9.82,0,0,0-7.71-6.21,7.45,7.45,0,0,0-3.76-6,11,11,0,0,0-8.77-1.07c-.27-7.25-1.73-11.31-9.32-13.8.65-5.14.32-10.16-4.08-14.76a18.47,18.47,0,0,0-17.52-5A13.53,13.53,0,0,0,87.47-150.2a13.52,13.52,0,0,0-9.73,2.33c-.45-3.88-1.79-7.84-4.71-10.44s-7.68-3.35-10.73-.92a10.46,10.46,0,0,0-12.09-8.55,10.48,10.48,0,0,0-7.91,6.33c.05-6.23-6.81-11.3-12.89-9.93S19.31-163.1,20.57-157c-2.57-2.48-6.89-1.43-9.91.48a14.88,14.88,0,0,0-6.31,7.27c-1.09,3.13-.52,7,1.94,9.18-4.33.65-16,27.77-24.4,48l-149.53,2a758.47,758.47,0,0,0-99.06,10c-51.74,8.83-69.4-.31-111.24,31.38-9,6.79-37.81,108.27-19.7,113.26,46.71,12.88,96.05,11,144.48,9.06,2.66-.11,5.44-.3,8.19-.67,19.37,4.56,39.22,7.54,59,6.24,5.85-.38,11.79-1.17,17.05-3.75l.19-.11c.25.32.51.63.79.93,4.05,4.23,12.16,3.18,15-2,4.48,2.73,11.23.18,12.79-4.83a15.71,15.71,0,0,0,19-.54c-1.34,3.72,1.94,7.87,5.8,8.79s7.86-.51,11.42-2.26c.84,4.36,7,6.6,10.41,3.81a6.14,6.14,0,0,0,8,3.24c5,6.24,15.06,7,21.36,2.43A7.9,7.9,0,0,0-61.25,91a8.19,8.19,0,0,0,11.41-2.08c.06-.08.11-.16.16-.24a10.89,10.89,0,0,0,12.87-5.52c4.31,2.28,10.41-.27,11.82-5,3.41,2.37,9-1,8.51-5.07a8.43,8.43,0,0,0,9.16-5.06,9,9,0,0,0,11,5.06c-1.56,3.54,2.33,8.07,6.06,7,.27,2,1.72,4.07,3.76,4.28s4-2.26,2.9-4l3.22,1.82c-2,1.79-1.33,5.45,1,6.78a5.53,5.53,0,0,0,7-1.8,7.35,7.35,0,0,0,.17-7.57c4.36,1.43,9.55-2.38,9.5-7a10.8,10.8,0,0,0,10.47-4.26,7.63,7.63,0,0,0,8.87.11c1.55,2.7,3.9,5.82,7,5.28,1.13-.2,2.16-.9,3.3-.86s2.29.93,3.38,1.56c4.53,2.62,11.22-.2,12.51-5.28,5.42,2.28,12,0,15.62-4.57A4.35,4.35,0,0,0,102,66.94c1.19,0,2.56-.37,3.42.44s.64,1.81.78,2.79a5.42,5.42,0,0,0,6.37,4.27l.24,0a7.93,7.93,0,0,0,3.07,6c2.38,1.81,5.54,2.11,8.53,2.33,3.24.25,6.57.49,9.71-.36s6.14-3,7.07-6.12A7.59,7.59,0,0,0,149.93,70l0-.26a10.43,10.43,0,0,0,15.25-9.81,9.51,9.51,0,0,0,9-8,10.28,10.28,0,0,0,13.14-5.29c3.74,2.65,9.76.8,11.38-3.48a7.35,7.35,0,0,0,7,.77,13.29,13.29,0,0,0,.09,1.9,8.08,8.08,0,0,0,7.35,7.09c-1.47,3.61,2,7.72,5.88,8.25s10.68-2.61,13.91-4.78a6.76,6.76,0,0,0,2.93-4.15C236.69,50,237.82,48.18,235.79,47Z"/><path class="cls-2" d="M230.45,46.93c-2.59,1.36-9.89.66-12.31-1a10.45,10.45,0,0,1-4.41-6.49,3.6,3.6,0,0,1-5.4-2.55,20.75,20.75,0,0,1-7.2,3c-2.58.38-5.49-.34-7.06-2.44s-1.11-5.63,1.26-6.74a18.71,18.71,0,0,1-15.41.43,6.23,6.23,0,0,0,5.59,5.17A8.31,8.31,0,0,1,178,42a8.64,8.64,0,0,1-11.66,3.65,8.74,8.74,0,0,1-3.42-3.24c-3.62,3.83-9.72,5.52-14.39,3.09a9.65,9.65,0,0,1-4.87-8.08,15.58,15.58,0,0,1-3.79.44c-6,0-12.94-4-12.35-9.94a12.67,12.67,0,0,1-11.16,5.73,11.54,11.54,0,0,1-15.42,14.51c-3,5.22-12,5.22-15,0-5.43,2.94-13.24-1.54-13.43-7.72a8.08,8.08,0,0,1-9,7c-.26,0-.53-.08-.79-.14A8.87,8.87,0,0,1,47,52.12a6.45,6.45,0,0,1-8.75,1.75,12.68,12.68,0,0,1-15.13-2.16,9,9,0,0,1-16.4-2.33,5,5,0,0,1-5.29-8.55,7,7,0,0,1-6-7.69c-.71,6.1-6.89,10.34-13,11.12-2.14.28-4.61.1-6-1.55-.54,4.2-2.89,8.54-6.9,9.89s-9.31-1.84-8.78-6.05A8.55,8.55,0,0,1-45,47.8a7.64,7.64,0,0,1-4.09,10,7.67,7.67,0,0,1-5.91,0c-.8,3.42-5.14,5-8.52,4s-6-3.59-8.41-6.13l-2.24-2.34c-5.33,1-10.5-5.26-8.5-10.31A6.07,6.07,0,0,1-87,35.58a6,6,0,0,1,5-4.46l.15-.35A10,10,0,0,1-89,30.51a10.59,10.59,0,0,1-5.21,6A7.42,7.42,0,0,1-94.37,47a7.44,7.44,0,0,1-6.54,2,10,10,0,0,1-11.31,8.48A10,10,0,0,1-118.48,54c-1.69,3.35-6.32,4.34-9.82,3s-6-4.39-8.13-7.52c-2.31-3.48-4.23-8.18-1.9-11.66-5.61,4.2-14.63,2.59-18.44-3.28.15,4.7-6.21,8.08-10,5.34a5.68,5.68,0,0,1-7,4,5.7,5.7,0,0,1-4.16-5.69,7.92,7.92,0,0,1-9.32-6.21c0-.26-.09-.53-.12-.79-3.35,2.29-7.87-.08-10.93-2.75s-6.47-5.91-10.48-5.32a11.66,11.66,0,0,1,6.21,12.17,7.34,7.34,0,0,1,9.39,4.49l0,0c4.18-3.79,12.28.61,11.38,6.18s-10,7.2-12.75,2.29a12,12,0,0,1-16.72,2.91,12,12,0,0,1-5-8.22c-6.4,4.19-16.44.18-18.2-7.27-2.07-8.82,5.85-16.53,13-22.14,21-16.56,42.52-33.38,67.65-42.57,3.81-1.38-8.87-26.06-28.34-60.3A743.37,743.37,0,0,0-266.69-80c-51.78,8.87-143.19,27.47-143.19,27.47l1,114.81s107.23,13.42,155.69,11.49c2.66-.11,5.44-.3,8.19-.67,19.37,4.56,39.22,7.54,59,6.24,5.85-.38,11.79-1.17,17.05-3.75l.19-.11c.25.32.51.63.79.93,4.05,4.23,12.16,3.18,15-2,4.48,2.73,11.23.18,12.79-4.83a15.71,15.71,0,0,0,19-.54c-1.34,3.72,1.94,7.87,5.8,8.79s7.86-.51,11.42-2.26c.84,4.36,7,6.6,10.41,3.81a6.14,6.14,0,0,0,8,3.24c5,6.24,15.06,7,21.36,2.43a7.9,7.9,0,0,0,2.91,6.07A8.19,8.19,0,0,0-49.87,89l.16-.24a10.89,10.89,0,0,0,12.87-5.52c4.31,2.28,10.41-.27,11.82-5,3.41,2.37,9-1,8.51-5.07a8.43,8.43,0,0,0,9.16-5.06,9,9,0,0,0,11,5.06c-1.56,3.54,2.33,8.07,6.06,7,.27,2,1.72,4.07,3.76,4.28s4-2.26,2.9-4l3.22,1.82c-2,1.79-1.33,5.45,1,6.78a5.53,5.53,0,0,0,7-1.8,7.35,7.35,0,0,0,.17-7.57c4.36,1.43,9.55-2.38,9.5-7A10.8,10.8,0,0,0,47.73,68.5a7.63,7.63,0,0,0,8.87.11c1.55,2.7,3.9,5.82,7,5.28,1.13-.2,2.16-.9,3.3-.86s2.29.93,3.38,1.56c4.53,2.62,11.22-.2,12.51-5.28,5.42,2.28,12,0,15.62-4.57A4.35,4.35,0,0,0,102,67.06c1.19,0,2.56-.37,3.42.44s.64,1.81.78,2.79a5.42,5.42,0,0,0,6.37,4.27l.24,0a7.93,7.93,0,0,0,3.07,6c2.38,1.81,5.54,2.11,8.53,2.33,3.24.25,6.57.49,9.71-.36s6.14-3,7.07-6.12a7.59,7.59,0,0,0,8.71-6.26l0-.26A10.43,10.43,0,0,0,165.18,60a9.51,9.51,0,0,0,9-8,10.26,10.26,0,0,0,13.17-5.41c3.74,2.65,9.76.8,11.38-3.48a7.35,7.35,0,0,0,7,.77,13.29,13.29,0,0,0,.09,1.9,8.08,8.08,0,0,0,7.35,7.09c-1.47,3.61,2,7.72,5.88,8.25s10.9,2.55,14.84-3.59c1.11-1.73,3.46-2.5,4.13-4.45A5.31,5.31,0,0,0,235.75,47c2.1-2.19,4-6,1.95-8.22a29.3,29.3,0,0,1-5.36.74C234.28,41.76,233.05,45.57,230.45,46.93Z"/><path class="cls-4" d="M-409.1,50.62c213.2-8.13,483.77,75.78,593.37,142.57-81.35.85-593,0-593,0Z"/></g><g id="grass"><circle class="cls-1" cx="13.38" cy="134.11" r="1.35"/><circle class="cls-1" cx="26.44" cy="139.03" r="1.35"/><circle class="cls-1" cx="45.13" cy="144.45" r="1.35"/><circle class="cls-1" cx="60.11" cy="150.66" r="1.35"/><circle class="cls-1" cx="74.24" cy="155.8" r="1.35"/><circle class="cls-1" cx="84.73" cy="158.94" r="1.35"/><circle class="cls-1" cx="98.43" cy="164.29" r="1.35"/><circle class="cls-1" cx="112.77" cy="169.21" r="1.35"/><circle class="cls-1" cx="128.54" cy="176.49" r="1.35"/><circle class="cls-1" cx="100.94" cy="175.21" r="1.13"/><circle class="cls-1" cx="87.67" cy="170.71" r="1.13"/><circle class="cls-1" cx="71.19" cy="165.36" r="1.13"/><circle class="cls-1" cx="58.34" cy="162.15" r="1.13"/><circle class="cls-1" cx="45.28" cy="156.37" r="1.13"/><circle class="cls-1" cx="32.77" cy="135.93" r="1.13"/><circle class="cls-1" cx="36.14" cy="147.32" r="1.13"/><circle class="cls-1" cx="18.16" cy="145.45" r="1.13"/><circle class="cls-1" cx="3.97" cy="141.6" r="1.13"/><circle class="cls-1" cx="-0.41" cy="154.23" r="0.9"/><circle class="cls-1" cx="16.93" cy="159.37" r="0.9"/><circle class="cls-1" cx="29.13" cy="164.18" r="0.9"/><circle class="cls-1" cx="47.96" cy="168.68" r="0.9"/><circle class="cls-1" cx="63.69" cy="176.7" r="0.9"/><circle class="cls-1" cx="78.2" cy="172.59" r="0.9"/><circle class="cls-1" cx="8.79" cy="167.39" r="0.9"/><circle class="cls-1" cx="6.92" cy="150.32" r="0.9"/><circle class="cls-1" cx="30.04" cy="155.51" r="0.9"/><circle class="cls-1" cx="37.74" cy="175.1" r="0.9"/><circle class="cls-1" cx="7.56" cy="124.05" r="1.61"/><circle class="cls-1" cx="21.69" cy="127.58" r="1.61"/><circle class="cls-1" cx="42.24" cy="133.68" r="1.61"/><circle class="cls-1" cx="59.58" cy="139.78" r="1.61"/><circle class="cls-1" cx="76.92" cy="146.2" r="1.61"/><circle class="cls-1" cx="93.29" cy="152.94" r="1.61"/><circle class="cls-1" cx="111.92" cy="160.01" r="1.61"/><circle class="cls-1" cx="127.97" cy="169.32" r="1.61"/></g><g id="front_tree" data-name="front tree"><path class="cls-3" d="M-409.39-201.08c42-11.56,55.66-43,137-42.59,77.07.4,146.84-2.14,197.36,61.22,14.56,6,134.86,76.63,133.57,114.3-1.3,38.09-82.2,44.1-134,45.38-48.05,1.19-80.06-17.55-141.7,50.52-27.34,30.19-71.28,47.2-92.48,147.7-8.34,8-107.45-22.26-97.61-34.25,60.05-23.22,53.6-34.78,71.93-59.51,22.22-30,46.88-52.33,28.68-101.46-34.16,3-37.8-4.78-46.36-4.78s-48.47,5.64-56.6.07c.39-4.2.61-15.51.72-30.49C-408.49-106.37-409.39-201.08-409.39-201.08Z"/></g></svg>