<svg id="Places" xmlns="http://www.w3.org/2000/svg" viewBox="0 0 76.87 76.87"><defs><style>.cls-1{fill:#153962;}.cls-2{fill:#2369a3;}.cls-3{fill:#a4d5ed;}.cls-4{fill:#b1dcf2;}.cls-5{fill:#c5e2f3;}.cls-6{fill:#0c4d82;}.cls-7{fill:#6486c0;}.cls-8{fill:#2e2e36;}.cls-9{fill:#2e71b5;}.cls-10{fill:#213b5c;}</style></defs><g id="background"><rect class="cls-1" x="-522.86" y="-153.07" width="600.9" height="600.9"/></g><g id="stars"><circle class="cls-2" cx="60.44" cy="28.43" r="0.7"/><circle class="cls-2" cx="2.64" cy="60.03" r="0.5"/><circle class="cls-2" cx="30.54" cy="34.63" r="0.5"/><circle class="cls-2" cx="69.24" cy="51.73" r="0.5"/><circle class="cls-2" cx="12.14" cy="4.03" r="0.7"/></g><g id="clouds"><path class="cls-3" d="M77.94,30.43c-3.9,4.9-5,11.1-9.1,11.1-9.8.2-38.1,2.6-43.7,10.7s15.2,9.3,18.6,18.4c2.3,6.1,6.4,11.2,11,15.8a87.55,87.55,0,0,0,21.6,16.1l.9.4C77.44,78.83,77.74,54.63,77.94,30.43Z"/><path class="cls-4" d="M77.84,47.63c-7.5,1.7-14.1,4.1-16.6,7.5-4.8,6.9,10,8.8,16.3,15.1Z"/><path class="cls-5" d="M77.54,67.63a30.8,30.8,0,0,0-3.3,27.5,33.62,33.62,0,0,0,3,6C77.34,89.93,77.44,78.73,77.54,67.63Z"/><path class="cls-6" d="M72.14,27.13c-15.6-4.1-33.8,5-47.4-3.5-4.3-2.7-7.5-6.9-11.1-10.4-11.2-10.7-27-15.3-42.4-16.9-24.8-2.5-52.4,3.1-68,22.5-4.6,5.7-8.2,12.7-14.6,16.3-6.8,3.9-15.1,3.2-22.7,4.6a43.17,43.17,0,0,0-25.2,14.5c-5.2,6.2-8.8,14.1-15.7,18.4-6,3.8-13.5,4.2-20.4,6.1s-14.1,6.6-14.7,13.7l27.2,8.5c68.4,12.8,139.8-5.9,208.2,7.2,17.5,3.4,35.1,8.8,52.8,7.7V29.43A31,31,0,0,0,72.14,27.13Z"/></g><g id="pool"><rect class="cls-7" x="39.44" y="43.93" width="1" height="49.9"/><path class="cls-8" d="M74-42.37s.9,13.8-1.7,22.7-15.1,45.1-18.8,60.3c-4.1,16.9-4.8,43.4-3.5,54.8,1.2,10.6,3.7.3,3.7.3s-1.9-14.7,1-42.3c1.8-16.9,10.8-43.8,13.9-53.1s8.1-20.7,9.4-33.9S74-42.37,74-42.37Z"/><path class="cls-8" d="M10.54,38.43a4.07,4.07,0,0,0-1.2,1.4,2.25,2.25,0,0,0-.2,1.8,3.45,3.45,0,0,0,1.2,1.2,12.44,12.44,0,0,0,2,1,1.42,1.42,0,0,0,.6.2c.8-.1.9-1.3,1.5-1.8-.4,1-.7,2.2,0,2.9a3.51,3.51,0,0,0,1.4.6A71,71,0,0,0,28,46.83a2.54,2.54,0,0,0,1.2-.2c.9-.4,1.1-1.6,1.3-2.6.4,1.1-.1,2.5.8,3.2a3.08,3.08,0,0,0,1.3.3l15.1-.2a5.85,5.85,0,0,0,1.3-.2,1.91,1.91,0,0,0,.7-1.4,4.71,4.71,0,0,0-.4-1.6,2.75,2.75,0,0,0-.8-1.5,3,3,0,0,0-1.5-.5c-4.5-.6-9.1-.3-13.6-.3a95.77,95.77,0,0,1-20.7-2.2"/><path class="cls-8" d="M48.64,42.23a13.31,13.31,0,0,0,1,3.4,2.18,2.18,0,0,0,.5.8,2,2,0,0,0,1.5.3,51.69,51.69,0,0,0,11.1-1.2,1.61,1.61,0,0,0,1.1-.5,1.8,1.8,0,0,0,.2-1,17.1,17.1,0,0,0-.9-3,18.39,18.39,0,0,0,1.7,2.2,2.65,2.65,0,0,0,.5.6,2,2,0,0,0,1.3-.1,12.29,12.29,0,0,0,2.5-1.4c.2-.1.3-.3.5-.4a1.69,1.69,0,0,0,.1-1.4,4.18,4.18,0,0,0-1.1-1.8.52.52,0,0,0-.4-.2.75.75,0,0,0-.5.1,29.12,29.12,0,0,1-8.2,2.1c-2.8.4-5.6.5-8.4,1a7,7,0,0,1-2.9.1"/><polygon class="cls-9" points="40.14 24.23 17.84 31.03 21.74 32.93 40.14 24.23"/><polygon class="cls-10" points="14.24 41.23 10.24 38.63 17.84 31.03 21.74 32.93 14.24 41.23"/><polygon class="cls-10" points="40.14 24.23 21.74 32.93 33.34 33.83 40.14 24.23"/><polygon class="cls-9" points="14.24 41.23 31.24 42.93 33.34 33.83 21.74 32.93 14.24 41.23"/><polygon class="cls-9" points="40.14 24.23 33.34 33.83 45.74 33.73 40.14 24.23"/><polygon class="cls-10" points="31.24 42.93 48.94 42.83 45.74 33.73 33.34 33.83 31.24 42.93"/><polygon class="cls-10" points="40.14 24.23 45.74 33.73 58.74 33.23 40.14 24.23"/><polygon class="cls-9" points="48.94 42.83 63.04 41.23 58.74 33.23 45.74 33.73 48.94 42.83"/><polygon class="cls-9" points="40.14 24.23 58.74 33.23 62.84 32.03 40.14 24.23"/><polygon class="cls-10" points="63.04 41.23 68.54 38.73 62.84 32.03 58.74 33.23 63.04 41.23"/></g></svg>