<svg id="Celebration" xmlns="http://www.w3.org/2000/svg" viewBox="0 0 120.46 120.41"><defs><style>.cls-1{fill:#51444b;}.cls-2{fill:#50536c;}.cls-3{fill:#387d7d;}.cls-4{fill:#38342d;}</style></defs><g id="background"><rect class="cls-1" x="-42.73" y="-324.57" width="850.39" height="850.39"/><polygon class="cls-2" points="807.66 495.8 807.78 -324.28 -43.39 -324.05 -43.39 495.86 807.66 495.8"/><circle class="cls-3" cx="59.43" cy="35.82" r="1.04"/><circle class="cls-3" cx="27.26" cy="66.47" r="1.04"/></g><g id="front_track" data-name="front track"><path class="cls-4" d="M751.56,94c-14-47-37.45-87.07-66.13-121.6C639.17-83.37,575.5-122.35,500-143.17c-35.63-9.83-73.86-18.07-114.16-19.33a391.42,391.42,0,0,0-48.06,1.43c1.88,0-.45.06-.41,0C132.52-141.89,9.38,40,13,212.49,16.08,357.13,89.52,475,203.62,536.24c8.36-.54,16.71-.74,25.07-1C106.69,477,36.6,348.71,39,203.77c.7-42.58,11.87-82.62,26.62-120.32,53.55-136.84,187.42-234.37,338-234.37,32.05,0,66,.07,95,8.14C574.78-121.64,635-75.35,677.63-9.13c38.58,59.86,61.78,137.39,61,219.3-.53,56-13.08,111-36.11,158.09A356.41,356.41,0,0,1,633.4,464.7c-1.06,1-2.12,2.1-3.2,3.14a357.85,357.85,0,0,1-74.66,55.58l-1.08.6q-8.54,4.71-17.36,9c4.19,5.75,8.87,11,13.51,16.23Q561.49,544.46,572,539c32.41-16.76,62.15-39.3,88.14-65.44l3-3A401.59,401.59,0,0,0,701,425.42c20.55-28.51,36.15-61.87,47.56-95.78,12.6-37.43,19-76,18.8-120.24C767.2,168.11,761.94,128.81,751.56,94Z"/><path class="cls-2" d="M28.83,127.33a.59.59,0,0,1-.54-.64.39.39,0,0,1,0-.14c2.5-10.85,4-16.26,7.32-27a1,1,0,0,1,.94-.69c5.43.41,7.53.79,13,1.21a.54.54,0,0,1,.51.57.46.46,0,0,1-.05.2c-3.54,10.58-5.1,15.86-7.73,26.58a.92.92,0,0,1-.87.71C36.17,127.86,34.12,127.58,28.83,127.33Z"/><path class="cls-2" d="M37.7,95.42a.55.55,0,0,1-.51-.6.46.46,0,0,1,.05-.2c2.88-8.91,6.17-17.79,9.79-26.43a1,1,0,0,1,1-.64c5.59.64,7.74,1.16,13.32,1.81a.54.54,0,0,1,.48.58.52.52,0,0,1-.07.21C57.31,80.36,55.28,85.54,51.63,96a1,1,0,0,1-1,.67C45.26,96.22,43.15,95.83,37.7,95.42Z"/><path class="cls-2" d="M49.49,64.12a.53.53,0,0,1-.49-.58.62.62,0,0,1,.07-.23c3.7-8.68,7.79-17.31,12.17-25.66a1.15,1.15,0,0,1,1.11-.58c5.73.92,7.93,1.6,13.65,2.52a.51.51,0,0,1,.46.56.54.54,0,0,1-.09.24c-5.38,9.83-7.88,14.84-12.48,25a1.1,1.1,0,0,1-1,.61C57.26,65.33,55.1,64.79,49.49,64.12Z"/><path class="cls-2" d="M64.1,33.77a.51.51,0,0,1-.47-.55.52.52,0,0,1,.1-.26c4.46-8.38,9.32-16.67,14.46-24.66a1.21,1.21,0,0,1,1.18-.51C85.22,9,87.47,9.86,93.3,11.08a.49.49,0,0,1,.44.54.47.47,0,0,1-.12.27C88.41,19.63,83.46,27.68,78.9,35.83a1.15,1.15,0,0,1-1.12.55C72.05,35.42,69.84,34.72,64.1,33.77Z"/><path class="cls-2" d="M81.41,4.64A.51.51,0,0,1,81,4.08a.68.68,0,0,1,.12-.26C86.3-4.18,91.9-12,97.75-19.59A1.33,1.33,0,0,1,99-20c6,1.52,8.22,2.55,14.15,4.07a.47.47,0,0,1,.43.51.48.48,0,0,1-.15.3C107.53-7.85,101.86-.22,96.57,7.54a1.26,1.26,0,0,1-1.2.48C89.53,6.77,87.28,5.89,81.41,4.64Z"/><path class="cls-2" d="M76.83,1.29l.7-1.07a1.14,1.14,0,0,1,1-.42c1.19.18,1.77.28,2.88.49a.39.39,0,0,1,.28.64L81,2a1,1,0,0,1-1,.41c-1.11-.21-1.68-.31-2.88-.48A.38.38,0,0,1,76.83,1.29Z"/><path class="cls-2" d="M72.17,8.57l.68-1.07a1.08,1.08,0,0,1,1-.44c1.19.17,1.76.26,2.87.46a.38.38,0,0,1,.37.41.35.35,0,0,1-.08.22c-.28.43-.41.64-.68,1.07a1,1,0,0,1-1,.42c-1.11-.19-1.68-.28-2.87-.45A.39.39,0,0,1,72.17,8.57Z"/><path class="cls-2" d="M67.86,15.65l.65-1.09a1.09,1.09,0,0,1,1-.45c1.19.15,1.76.24,2.86.43a.38.38,0,0,1,.37.41.35.35,0,0,1-.08.22L72,16.25a1,1,0,0,1-.93.44c-1.11-.18-1.67-.27-2.86-.42C67.85,16.22,67.69,16,67.86,15.65Z"/><path class="cls-2" d="M63.49,23.2l.62-1.1a1,1,0,0,1,1-.46c1.17.14,1.74.22,2.84.39a.4.4,0,0,1,.38.42.35.35,0,0,1-.08.22l-.63,1.09a1,1,0,0,1-.92.45C65.61,24,65,24,63.87,23.82,63.48,23.78,63.32,23.5,63.49,23.2Z"/><path class="cls-2" d="M59.43,30.59c.23-.45.35-.67.6-1.12A1,1,0,0,1,61,29c1.17.13,1.74.2,2.83.36a.4.4,0,0,1,.31.63l-.6,1.11a1,1,0,0,1-.91.46c-1.09-.16-1.65-.23-2.82-.36C59.43,31.17,59.26,30.89,59.43,30.59Z"/><path class="cls-2" d="M55.45,38.21,56,37.08a1,1,0,0,1,.94-.49c1.17.12,1.73.19,2.81.34a.4.4,0,0,1,.39.41.34.34,0,0,1-.07.22l-.58,1.12a.93.93,0,0,1-.88.47c-1.09-.14-1.64-.21-2.81-.33C55.46,38.79,55.29,38.51,55.45,38.21Z"/><path class="cls-2" d="M51.8,45.59l.55-1.14a1,1,0,0,1,.92-.5c1.16.11,1.71.17,2.79.31a.41.41,0,0,1,.39.43.36.36,0,0,1-.06.2L55.84,46a.92.92,0,0,1-.87.48c-1.08-.13-1.63-.19-2.79-.3a.41.41,0,0,1-.43-.39A.36.36,0,0,1,51.8,45.59Z"/><path class="cls-2" d="M48.12,53.42l.52-1.15a1,1,0,0,1,.91-.51c1.15.1,1.7.15,2.78.27a.41.41,0,0,1,.39.43.36.36,0,0,1-.06.2c-.21.46-.31.69-.52,1.14a.89.89,0,0,1-.86.49c-1.07-.11-1.62-.17-2.76-.26C48.16,54,47.94,53.76,48.12,53.42Z"/><path class="cls-2" d="M44.74,61.1l.5-1.15a1,1,0,0,1,.89-.52c1.14.08,1.69.13,2.76.24a.42.42,0,0,1,.4.44.6.6,0,0,1-.06.19l-.5,1.15a.87.87,0,0,1-.83.5c-1.07-.1-1.61-.15-2.75-.23a.43.43,0,0,1-.45-.4A.41.41,0,0,1,44.74,61.1Z"/><path class="cls-2" d="M41.47,69l.47-1.17a1,1,0,0,1,.88-.53c1.13.08,1.67.12,2.73.22a.42.42,0,0,1,.41.43.41.41,0,0,1-.05.19c-.19.47-.29.7-.48,1.16a.88.88,0,0,1-.82.52c-1-.1-1.6-.14-2.73-.21a.43.43,0,0,1-.45-.41A.45.45,0,0,1,41.47,69Z"/><path class="cls-2" d="M38.5,76.6l.44-1.18a.9.9,0,0,1,.85-.54c1.13.06,1.67.1,2.72.19a.43.43,0,0,1,.41.45.33.33,0,0,1,0,.17l-.45,1.17a.84.84,0,0,1-.8.52c-1-.08-1.59-.12-2.72-.18a.42.42,0,0,1-.44-.41A.31.31,0,0,1,38.5,76.6Z"/><path class="cls-2" d="M35.55,84.68,36,83.51a.88.88,0,0,1,.84-.55c1.12,0,1.65.09,2.7.16a.43.43,0,0,1,.41.45.33.33,0,0,1,0,.17c-.17.47-.25.71-.42,1.17a.82.82,0,0,1-.78.54c-1-.08-1.58-.11-2.7-.16a.44.44,0,0,1-.46-.41A.34.34,0,0,1,35.55,84.68Z"/><path class="cls-2" d="M32.88,92.54c.16-.47.24-.71.39-1.18a.88.88,0,0,1,.82-.56l2.69.14a.42.42,0,0,1,.42.44.39.39,0,0,1,0,.18l-.4,1.18a.78.78,0,0,1-.76.54l-2.68-.14a.44.44,0,0,1-.47-.41A.63.63,0,0,1,32.88,92.54Z"/><path class="cls-2" d="M30.34,100.61c.15-.48.22-.72.36-1.19a.87.87,0,0,1,.81-.57c1.1,0,1.63.07,2.66.13a.43.43,0,0,1,.43.43.39.39,0,0,1,0,.18c-.15.47-.22.71-.37,1.19a.79.79,0,0,1-.75.55c-1-.06-1.55-.08-2.65-.12a.45.45,0,0,1-.48-.42A.57.57,0,0,1,30.34,100.61Z"/><path class="cls-2" d="M28.08,108.42c.13-.48.2-.71.33-1.19a.84.84,0,0,1,.79-.57c1.09,0,1.62,0,2.64.1a.43.43,0,0,1,.43.45.45.45,0,0,1,0,.16c-.13.48-.2.72-.34,1.19a.78.78,0,0,1-.73.56c-1-.05-1.54-.07-2.64-.1a.45.45,0,0,1-.48-.42A.57.57,0,0,1,28.08,108.42Z"/><path class="cls-2" d="M25.88,116.62c.12-.48.19-.72.31-1.2a.8.8,0,0,1,.77-.58c1.08,0,1.6,0,2.62.08a.45.45,0,0,1,.43.48.51.51,0,0,1,0,.13c-.13.48-.19.72-.31,1.2a.77.77,0,0,1-.72.56c-1,0-1.53-.05-2.61-.07a.47.47,0,0,1-.49-.45A.77.77,0,0,1,25.88,116.62Z"/><path class="cls-2" d="M50.14,116.77l-.33,1.17a.84.84,0,0,1-.78.57c-1.08,0-1.6,0-2.61-.08A.44.44,0,0,1,46,118a.45.45,0,0,1,0-.16l.33-1.17a.76.76,0,0,1,.73-.55c1,0,1.54.06,2.62.08a.44.44,0,0,1,.47.41A.33.33,0,0,1,50.14,116.77Z"/><path class="cls-2" d="M52.55,108.75c-.14.47-.22.7-.36,1.17a.85.85,0,0,1-.79.55l-2.64,0a.42.42,0,0,1-.42-.43.47.47,0,0,1,0-.17l.35-1.17a.8.8,0,0,1,.75-.54c1,0,1.55.07,2.64.1a.43.43,0,0,1,.45.41A.29.29,0,0,1,52.55,108.75Z"/><path class="cls-2" d="M55,101.2c-.16.46-.24.69-.39,1.15a.87.87,0,0,1-.81.55c-1.1,0-1.63-.06-2.66-.11a.42.42,0,0,1-.42-.42.39.39,0,0,1,0-.18c.15-.47.23-.7.38-1.16a.81.81,0,0,1,.76-.54c1,.06,1.56.08,2.67.12a.43.43,0,0,1,.46.4A.42.42,0,0,1,55,101.2Z"/><path class="cls-2" d="M57.77,93.42l-.42,1.14a.88.88,0,0,1-.83.54c-1.11,0-1.64-.07-2.68-.13a.42.42,0,0,1-.42-.42.59.59,0,0,1,0-.19c.16-.46.25-.69.41-1.15a.82.82,0,0,1,.78-.52l2.68.14a.43.43,0,0,1,.46.4A.42.42,0,0,1,57.77,93.42Z"/><path class="cls-2" d="M60.64,85.78l-.45,1.13a.92.92,0,0,1-.84.54l-2.7-.16a.43.43,0,0,1-.41-.45.47.47,0,0,1,0-.16c.18-.46.27-.68.44-1.14a.86.86,0,0,1,.8-.52c1,.08,1.58.11,2.7.17a.43.43,0,0,1,.46.38A.49.49,0,0,1,60.64,85.78Z"/><path class="cls-2" d="M63.79,78l-.47,1.13a1,1,0,0,1-.87.53c-1.12-.07-1.66-.1-2.71-.19a.41.41,0,0,1-.41-.41.46.46,0,0,1,.05-.2l.47-1.13a.85.85,0,0,1,.81-.51c1,.09,1.6.13,2.72.19a.41.41,0,0,1,.45.37A.43.43,0,0,1,63.79,78Z"/><path class="cls-2" d="M66.94,70.64l-.5,1.12a1,1,0,0,1-.88.51c-1.13-.07-1.68-.11-2.73-.21a.4.4,0,0,1-.41-.39.43.43,0,0,1,.06-.22c.19-.45.29-.67.49-1.12a.87.87,0,0,1,.83-.5c1.06.1,1.6.14,2.74.22a.41.41,0,0,1,.44.38A.39.39,0,0,1,66.94,70.64Z"/><path class="cls-2" d="M70.41,63.06l-.52,1.11a1,1,0,0,1-.9.5c-1.14-.08-1.69-.13-2.75-.23a.4.4,0,0,1-.4-.4.39.39,0,0,1,.06-.21l.52-1.12a.91.91,0,0,1,.85-.49c1.06.11,1.61.16,2.75.25C70.38,62.5,70.55,62.76,70.41,63.06Z"/><path class="cls-2" d="M73.94,55.71l-.54,1.1a1,1,0,0,1-.92.49c-1.15-.09-1.7-.14-2.77-.26a.4.4,0,0,1-.39-.41.36.36,0,0,1,.06-.2l.54-1.11a.93.93,0,0,1,.87-.47c1.07.12,1.62.17,2.77.27C73.94,55.15,74.12,55.42,73.94,55.71Z"/><path class="cls-2" d="M77.83,48.18l-.57,1.09a1,1,0,0,1-.93.48c-1.15-.1-1.71-.16-2.79-.29a.41.41,0,0,1-.39-.41.48.48,0,0,1,.07-.21l.57-1.09a.93.93,0,0,1,.88-.46c1.08.13,1.64.19,2.79.3C77.82,47.62,78,47.89,77.83,48.18Z"/><path class="cls-2" d="M81.66,41.12l-.6,1.08a1.08,1.08,0,0,1-1,.47c-1.16-.12-1.72-.19-2.8-.33a.39.39,0,0,1-.39-.39.44.44,0,0,1,.07-.22l.6-1.09a1,1,0,0,1,.89-.45c1.09.15,1.65.22,2.81.34C81.65,40.56,81.82,40.83,81.66,41.12Z"/><path class="cls-2" d="M85.81,33.84l-.62,1.06a1.07,1.07,0,0,1-1,.46c-1.17-.13-1.73-.2-2.82-.35a.38.38,0,0,1-.37-.4.34.34,0,0,1,.07-.22l.61-1.07a1,1,0,0,1,.92-.44c1.09.16,1.65.23,2.82.36C85.81,33.28,85.94,33.55,85.81,33.84Z"/><path class="cls-2" d="M90,26.79c-.26.42-.39.64-.64,1.06a1.11,1.11,0,0,1-1,.44c-1.18-.14-1.74-.22-2.84-.38a.38.38,0,0,1-.37-.4.34.34,0,0,1,.07-.22l.64-1.06a1,1,0,0,1,.93-.42c1.1.17,1.67.25,2.84.39C90.05,26.24,90.21,26.51,90,26.79Z"/><path class="cls-2" d="M94.57,19.59l-.67,1a1.08,1.08,0,0,1-1,.43c-1.18-.15-1.75-.23-2.85-.41a.38.38,0,0,1-.38-.38.5.5,0,0,1,.09-.24l.67-1a1,1,0,0,1,.94-.41c1.11.19,1.68.27,2.86.43C94.6,19.05,94.75,19.31,94.57,19.59Z"/><path class="cls-2" d="M99,12.86l-.7,1a1.14,1.14,0,0,1-1,.42c-1.19-.16-1.76-.26-2.86-.45a.38.38,0,0,1-.38-.36.4.4,0,0,1,.1-.26l.69-1a1,1,0,0,1,1-.4c1.11.2,1.69.29,2.87.46C99.06,12.31,99.21,12.58,99,12.86Z"/><path class="cls-2" d="M103.83,5.93l-.72,1a1.16,1.16,0,0,1-1,.4c-1.2-.17-1.77-.27-2.88-.48a.38.38,0,0,1-.37-.37.39.39,0,0,1,.1-.25l.71-1a1.06,1.06,0,0,1,1-.38c1.12.21,1.69.31,2.89.49C103.88,5.42,104,5.65,103.83,5.93Z"/><path class="cls-2" d="M108.69-.76l-.74,1a1.21,1.21,0,0,1-1,.39c-1.2-.19-1.78-.3-2.9-.51a.38.38,0,0,1-.36-.38.43.43,0,0,1,.1-.24c.29-.41.44-.61.74-1a1.08,1.08,0,0,1,1-.37c1.12.23,1.7.33,2.9.52C108.74-1.3,108.94-1,108.69-.76Z"/></g></svg>